<svg width="86" height="53" viewBox="0 0 86 53" fill="none" xmlns="http://www.w3.org/2000/svg">
<rect width="86" height="53" rx="26.5" fill="white"/>
<path d="M56 10C47.164 10 40 17.163 40 26C40 34.837 47.164 42 56 42C64.836 42 72 34.837 72 26C72 17.163 64.836 10 56 10ZM56 38C52.249 38 48.902 36.277 46.702 33.581C47.705 30.547 49.711 28.122 52.228 26.89C50.288 25.646 49 23.475 49 21C49 17.376 51.754 14.395 55.284 14.036C55.522 14.022 55.758 14 56 14C56.242 14 56.478 14.022 56.716 14.036C60.246 14.395 63 17.376 63 21C63 23.475 61.712 25.646 59.772 26.89C62.29 28.123 64.295 30.548 65.298 33.581C63.098 36.277 59.751 38 56 38Z" fill="#F78065"/>
<path fill-rule="evenodd" clip-rule="evenodd" d="M26.71 29.29L31.3 24.7C31.69 24.31 31.69 23.68 31.3 23.29C30.91 22.9 30.28 22.9 29.89 23.29L26 27.17L22.12 23.29C21.73 22.9 21.1 22.9 20.71 23.29C20.32 23.68 20.32 24.31 20.71 24.7L25.3 29.29C25.68 29.68 26.32 29.68 26.71 29.29Z" fill="#444B53"/>
</svg>
