<svg width="24" height="25" viewBox="0 0 24 25" fill="none" xmlns="http://www.w3.org/2000/svg">
<g clip-path="url(#clip0)">
<path d="M12 0.5C5.37225 0.5 0 5.87225 0 12.5C0 19.1278 5.37225 24.5 12 24.5C18.6278 24.5 24 19.1278 24 12.5C24 5.87225 18.6278 0.5 12 0.5ZM22.5 12.494C22.5 12.8165 21.7478 13.316 20.52 13.793C20.5522 13.3678 20.571 12.9373 20.571 12.5C20.571 12.0612 20.5522 11.63 20.5192 11.2032C21.7463 11.6772 22.4993 12.1722 22.4993 12.488C22.5 12.4903 22.5 12.4917 22.5 12.494ZM12.012 23C12.012 23 12.0082 23 12.006 23C11.6835 23 11.184 22.2478 10.707 21.02C11.1322 21.0522 11.5627 21.071 12 21.071C12.438 21.071 12.87 21.0522 13.2968 21.0192C12.822 22.247 12.3278 23 12.012 23ZM12 19.5718C11.3857 19.5718 10.7873 19.529 10.2015 19.46C9.97875 18.6252 9.7845 17.642 9.63975 16.5335C10.4032 16.586 11.1915 16.6138 11.9992 16.6138C12.8077 16.6138 13.596 16.5853 14.3595 16.5335C14.2148 17.642 14.0212 18.6245 13.7992 19.4592C13.2135 19.5282 12.615 19.5718 12 19.5718ZM12 15.1145C11.1068 15.1145 10.2705 15.0785 9.48225 15.0177C9.4215 14.2303 9.3855 13.3932 9.3855 12.5C9.3855 11.6068 9.4215 10.7705 9.48225 9.98225C10.2697 9.9215 11.106 9.8855 11.9992 9.8855C12.8925 9.8855 13.7287 9.9215 14.5162 9.98225C14.577 10.7697 14.613 11.606 14.613 12.5C14.613 13.3932 14.577 14.2295 14.5162 15.0177C13.7302 15.0778 12.8932 15.1145 12 15.1145ZM1.5 12.512C1.5 12.5098 1.5 12.5082 1.5 12.506C1.5 12.1835 2.25225 11.684 3.48 11.207C3.447 11.6322 3.42825 12.0627 3.42825 12.5C3.42825 12.9388 3.447 13.37 3.48 13.7968C2.253 13.3228 1.5 12.8278 1.5 12.512ZM4.92825 12.5C4.92825 11.8857 4.971 11.2873 5.04 10.7015C5.87475 10.4788 6.858 10.2845 7.9665 10.1397C7.914 10.9032 7.88625 11.6915 7.88625 12.4992C7.88625 13.3077 7.91475 14.096 7.9665 14.8595C6.858 14.7155 5.87475 14.522 5.04 14.3C4.97175 13.7135 4.92825 13.115 4.92825 12.5ZM12 2.0015C12.3232 2.07725 12.819 2.7605 13.293 3.98C12.8678 3.94775 12.4373 3.92825 12 3.92825C11.5627 3.92825 11.1322 3.947 10.707 3.98C11.181 2.7605 11.6768 2.0765 12 2.0015ZM12 5.42825C12.6143 5.42825 13.2127 5.471 13.7977 5.53925C14.0205 6.374 14.2148 7.3565 14.3595 8.46575C13.596 8.41325 12.8077 8.3855 12 8.3855C11.1923 8.3855 10.4032 8.414 9.6405 8.46575C9.78525 7.3565 9.9795 6.37475 10.2022 5.53925C10.7872 5.47175 11.3857 5.42825 12 5.42825ZM16.0335 10.1397C17.142 10.2845 18.1245 10.478 18.9592 10.7C19.0282 11.2858 19.071 11.885 19.071 12.5C19.071 13.1143 19.0282 13.7128 18.9592 14.2985C18.1245 14.5213 17.1413 14.7155 16.0328 14.8602C16.0853 14.0967 16.113 13.3085 16.113 12.5007C16.1145 11.6915 16.086 10.9032 16.0335 10.1397ZM20.2965 9.53225C20.1922 8.95925 20.067 8.39825 19.9065 7.862C20.7787 8.5355 21.462 9.32 21.9075 10.1803C21.438 9.94475 20.895 9.72875 20.2965 9.53225ZM18.6795 9.08225C17.823 8.885 16.8833 8.72825 15.8895 8.61125C15.7725 7.6175 15.6158 6.67775 15.4185 5.82125C16.2893 6.02375 17.1135 6.29525 17.8643 6.63725C18.2048 7.38725 18.4762 8.2115 18.6795 9.08225ZM14.9685 4.2035C14.772 3.605 14.556 3.062 14.3205 2.5925C15.1815 3.038 15.9653 3.72125 16.6388 4.5935C16.1017 4.433 15.5408 4.30775 14.9685 4.2035ZM9.6795 2.5925C9.444 3.062 9.228 3.605 9.0315 4.2035C8.4585 4.30775 7.8975 4.433 7.36125 4.5935C8.03475 3.72125 8.81925 3.038 9.6795 2.5925ZM8.58225 5.8205C8.385 6.677 8.22825 7.61675 8.11125 8.6105C7.1175 8.7275 6.17775 8.88425 5.32125 9.0815C5.52375 8.21075 5.79525 7.3865 6.13725 6.63575C6.88725 6.29525 7.71075 6.02375 8.58225 5.8205ZM3.7035 9.53225C3.105 9.72875 2.562 9.94475 2.0925 10.1803C2.538 9.31925 3.22125 8.5355 4.0935 7.862C3.933 8.39825 3.80775 8.95925 3.7035 9.53225ZM2.0925 14.8197C2.562 15.0553 3.105 15.2713 3.7035 15.4678C3.80775 16.0408 3.933 16.6017 4.0935 17.138C3.22125 16.4653 2.538 15.6807 2.0925 14.8197ZM5.3205 15.9177C6.177 16.115 7.11675 16.2717 8.1105 16.3888C8.2275 17.3825 8.38425 18.3223 8.5815 19.1788C7.71075 18.9762 6.8865 18.7048 6.13575 18.3627C5.79525 17.6127 5.52375 16.7892 5.3205 15.9177ZM9.0315 20.7965C9.228 21.395 9.444 21.938 9.6795 22.4075C8.81925 21.962 8.03475 21.2787 7.36125 20.4065C7.89825 20.567 8.45925 20.6922 9.0315 20.7965ZM14.3205 22.4075C14.556 21.938 14.772 21.395 14.9685 20.7965C15.5415 20.6922 16.1025 20.567 16.6388 20.4065C15.9653 21.2787 15.1807 21.962 14.3205 22.4075ZM15.4177 19.1795C15.615 18.323 15.7717 17.3833 15.8888 16.3895C16.8825 16.2725 17.8223 16.1158 18.6788 15.9185C18.4762 16.7893 18.2048 17.6135 17.8627 18.3643C17.1127 18.7048 16.2892 18.9762 15.4177 19.1795ZM20.2965 15.4678C20.895 15.2713 21.438 15.0553 21.9075 14.8197C21.462 15.6807 20.7787 16.4645 19.9065 17.138C20.067 16.6017 20.1922 16.0408 20.2965 15.4678ZM20.664 6.5795C20.1465 6.19325 19.5788 5.843 18.969 5.531C18.657 4.9205 18.3067 4.3535 17.9205 3.836C18.996 4.57325 19.9268 5.504 20.664 6.5795ZM6.0795 3.836C5.69325 4.3535 5.343 4.92125 5.031 5.531C4.4205 5.843 3.8535 6.19325 3.336 6.5795C4.07325 5.504 5.004 4.57325 6.0795 3.836ZM3.336 18.4205C3.8535 18.8067 4.42125 19.157 5.031 19.469C5.343 20.0795 5.69325 20.6465 6.0795 21.164C5.004 20.4268 4.07325 19.496 3.336 18.4205ZM17.9205 21.164C18.3067 20.6465 18.657 20.0795 18.969 19.469C19.5795 19.157 20.1465 18.8067 20.664 18.4205C19.9268 19.496 18.996 20.4268 17.9205 21.164Z" fill="white"/>
</g>
<defs>
<clipPath id="clip0">
<rect width="24" height="24" fill="white" transform="translate(0 0.5)"/>
</clipPath>
</defs>
</svg>
