<svg width="32" height="32" viewBox="0 0 32 32" fill="none" xmlns="http://www.w3.org/2000/svg">
<path d="M16 0C7.164 0 0 7.163 0 16C0 24.837 7.164 32 16 32C24.836 32 32 24.837 32 16C32 7.163 24.836 0 16 0ZM16 28C12.249 28 8.902 26.277 6.702 23.581C7.705 20.547 9.711 18.122 12.228 16.89C10.288 15.646 9 13.475 9 11C9 7.376 11.754 4.395 15.284 4.036C15.522 4.022 15.758 4 16 4C16.242 4 16.478 4.022 16.716 4.036C20.246 4.395 23 7.376 23 11C23 13.475 21.712 15.646 19.772 16.89C22.29 18.123 24.295 20.548 25.298 23.581C23.098 26.277 19.751 28 16 28Z" fill="#F78065"/>
</svg>
