<svg width="248" height="180" viewBox="0 0 248 180" fill="none" xmlns="http://www.w3.org/2000/svg">
<g clip-path="url(#clip0)">
<path opacity="0.1" d="M137.461 86.8184C131.432 86.8097 125.521 88.4922 120.401 91.675C120.337 83.1324 116.899 74.9614 110.836 68.9431C104.773 62.9248 96.5768 59.5474 88.0341 59.547C84.1831 59.543 80.3625 60.228 76.7528 61.5696V53.7359C76.7528 49.485 75.9155 45.2757 74.2887 41.3484C72.6618 37.4211 70.2774 33.8527 67.2714 30.8469C64.2655 27.8412 60.6969 25.4569 56.7695 23.8304C52.842 22.2038 48.6327 21.3668 44.3817 21.3671C35.797 21.3671 27.5639 24.7774 21.4935 30.8477C15.4232 36.9181 12.0129 45.1512 12.0129 53.7359V139.641H169.83V119.187C169.83 110.602 166.42 102.369 160.349 96.299C154.279 90.2287 146.046 86.8184 137.461 86.8184Z" fill="#F78065"/>
<path d="M174.125 135.782C174.125 135.782 178.67 128.657 179.207 125.614C179.584 123.629 180.113 121.675 180.791 119.771" stroke="#535461" stroke-width="2" stroke-miterlimit="10"/>
<path d="M181.823 125.857L178.973 126.1C178.973 126.1 180.484 128.716 181.823 125.857Z" fill="#F78065"/>
<path d="M176.832 124.276L179.104 126.094C179.104 126.094 176.164 127.257 176.832 124.276Z" fill="#F78065"/>
<path d="M182.189 123.362L179.614 123.707C179.614 123.707 181.884 125.553 182.189 123.362Z" fill="#F78065"/>
<path d="M177.927 122.448L179.627 123.641C179.627 123.641 177.564 124.519 177.927 122.448Z" fill="#F78065"/>
<path d="M180.259 121.362C180.259 121.362 182.37 120.803 182.675 120.926C182.979 121.048 182.798 122.385 181.945 122.446C181.093 122.507 180.259 121.362 180.259 121.362Z" fill="#F78065"/>
<path d="M178.841 119.771C178.841 119.771 180.18 121.048 180.241 121.362C180.302 121.676 179.146 122.396 178.537 121.362C177.927 120.328 178.841 119.771 178.841 119.771Z" fill="#F78065"/>
<path d="M181.336 120.501C181.673 120.501 181.945 120.228 181.945 119.892C181.945 119.555 181.673 119.283 181.336 119.283C181 119.283 180.727 119.555 180.727 119.892C180.727 120.228 181 120.501 181.336 120.501Z" fill="#FFD037"/>
<path d="M180.241 120.196C180.577 120.196 180.85 119.924 180.85 119.587C180.85 119.251 180.577 118.978 180.241 118.978C179.905 118.978 179.632 119.251 179.632 119.587C179.632 119.924 179.905 120.196 180.241 120.196Z" fill="#FFD037"/>
<path opacity="0.1" d="M148.722 64.7967C146.449 67.0943 146.311 70.6169 146.311 70.6169C146.311 70.6169 149.831 70.4169 152.095 68.117C154.358 65.8171 154.506 62.2968 154.506 62.2968C154.506 62.2968 150.986 62.5014 148.722 64.7967Z" fill="#F78065"/>
<path opacity="0.1" d="M129.43 49.1134C130.232 52.2382 133.173 54.1813 133.173 54.1813C133.173 54.1813 134.816 51.061 134.016 47.9362C133.216 44.8114 130.271 42.8705 130.271 42.8705C130.271 42.8705 128.635 45.9908 129.43 49.1134Z" fill="#F78065"/>
<path opacity="0.1" d="M170.53 78.8415C168.257 81.1391 168.116 84.6616 168.116 84.6616C168.116 84.6616 171.637 84.4617 173.9 82.1618C176.164 79.8619 176.314 76.3416 176.314 76.3416C176.314 76.3416 172.793 76.5439 170.53 78.8415Z" fill="#F78065"/>
<path opacity="0.1" d="M179.586 98.6177C179.323 101.831 181.466 104.631 181.466 104.631C181.466 104.631 184.041 102.22 184.304 99.0063C184.568 95.7929 182.425 92.993 182.425 92.993C182.425 92.993 179.85 95.4043 179.586 98.6177Z" fill="#F78065"/>
<path opacity="0.1" d="M232.068 83.6367C231.804 86.8502 233.95 89.65 233.95 89.65C233.95 89.65 236.522 87.2388 236.786 84.0253C237.049 80.8118 234.906 78.012 234.906 78.012C234.906 78.012 232.331 80.4278 232.068 83.6367Z" fill="#F78065"/>
<path d="M14.647 137.241C14.647 137.241 115.626 117.996 226.909 137.241C338.192 156.485 -40.6457 153.533 14.647 137.241Z" fill="#F78065"/>
<path d="M70.6192 140.377C70.7988 142.677 68.5557 144.415 66.4104 145.259C64.265 146.102 61.8174 146.622 60.3379 148.386C59.9205 148.842 59.6614 149.42 59.5993 150.036C59.5312 151.383 60.7856 152.406 61.9924 153.006C65.4468 154.719 69.417 154.929 73.2146 155.594C77.0121 156.26 81.0119 157.612 83.1936 160.792C84.2049 162.269 84.7549 164.053 85.8889 165.451C87.707 167.671 90.8228 168.544 93.6635 168.16C96.5043 167.776 99.0951 166.292 101.327 164.492C103.827 162.476 106.131 159.946 109.242 159.146C114.597 157.758 119.601 161.905 124.717 164.014C130.893 166.56 137.929 166.132 144.418 164.535C145.872 164.176 147.345 163.749 148.583 162.905C150.013 161.935 151.038 160.481 152.376 159.39C155.699 156.681 160.369 156.578 164.649 156.603L177.077 156.674C179.534 156.688 182.152 156.656 184.207 155.31C186.313 153.929 187.427 151.297 187.293 148.781C187.159 146.265 185.898 143.893 184.132 142.095C180.207 138.1 174.284 136.964 168.735 136.186C142.027 132.498 114.942 132.8 87.9752 133.107C83.464 133.159 78.9302 133.207 74.4531 133.832C73.3418 133.986 68.7125 134.216 68.2762 135.395C67.8648 136.504 70.5124 139.007 70.6192 140.377Z" fill="#F78065"/>
<path d="M39.2639 161.749C44.3108 161.749 48.4021 161.057 48.4021 160.203C48.4021 159.35 44.3108 158.658 39.2639 158.658C34.217 158.658 30.1257 159.35 30.1257 160.203C30.1257 161.057 34.217 161.749 39.2639 161.749Z" fill="#F78065"/>
<path d="M46.5271 174.571C51.574 174.571 55.6653 173.879 55.6653 173.025C55.6653 172.172 51.574 171.48 46.5271 171.48C41.4802 171.48 37.3889 172.172 37.3889 173.025C37.3889 173.879 41.4802 174.571 46.5271 174.571Z" fill="#F78065"/>
<path d="M18.1331 152.658C21.5131 152.658 24.2532 152.195 24.2532 151.624C24.2532 151.053 21.5131 150.59 18.1331 150.59C14.753 150.59 12.0129 151.053 12.0129 151.624C12.0129 152.195 14.753 152.658 18.1331 152.658Z" fill="#F78065"/>
<path d="M67.9876 165.905C71.3676 165.905 74.1077 165.442 74.1077 164.871C74.1077 164.3 71.3676 163.837 67.9876 163.837C64.6075 163.837 61.8674 164.3 61.8674 164.871C61.8674 165.442 64.6075 165.905 67.9876 165.905Z" fill="#F78065"/>
<path d="M199.267 157.317C202.647 157.317 205.387 156.854 205.387 156.283C205.387 155.712 202.647 155.249 199.267 155.249C195.887 155.249 193.147 155.712 193.147 156.283C193.147 156.854 195.887 157.317 199.267 157.317Z" fill="#F78065"/>
<path d="M160.626 167.41C164.006 167.41 166.746 166.947 166.746 166.376C166.746 165.805 164.006 165.342 160.626 165.342C157.246 165.342 154.506 165.805 154.506 166.376C154.506 166.947 157.246 167.41 160.626 167.41Z" fill="#F78065"/>
<path d="M225.291 161.749C230.338 161.749 234.429 161.057 234.429 160.203C234.429 159.35 230.338 158.658 225.291 158.658C220.244 158.658 216.153 159.35 216.153 160.203C216.153 161.057 220.244 161.749 225.291 161.749Z" fill="#F78065"/>
<path d="M188.506 171.366C196.659 171.366 203.267 170.249 203.267 168.871C203.267 167.493 196.659 166.376 188.506 166.376C180.354 166.376 173.746 167.493 173.746 168.871C173.746 170.249 180.354 171.366 188.506 171.366Z" fill="#F78065"/>
<path d="M118.68 179.998C130.072 179.998 139.307 178.437 139.307 176.512C139.307 174.586 130.072 173.025 118.68 173.025C107.289 173.025 98.0542 174.586 98.0542 176.512C98.0542 178.437 107.289 179.998 118.68 179.998Z" fill="#F78065"/>
<path d="M226.984 107.097C226.984 107.097 222.364 111.717 224.973 118.571C227.582 125.425 220.5 136.829 220.5 136.829L220.728 136.793C230.216 135.118 234.931 124.264 229.654 116.203C227.684 113.206 226.073 109.69 226.984 107.097Z" fill="#F78065"/>
<path d="M226.984 107.097C226.984 107.097 224.377 112.76 226.984 117.38C229.591 122.001 227.439 134.966 220.5 136.829" stroke="#535461" stroke-miterlimit="10"/>
<path d="M235.213 125.782C235.213 125.782 229.941 124.944 229.461 129.668C228.982 134.393 219.323 135.048 219.323 135.048L219.505 135.168C227.477 140.395 235.1 138.502 233.952 131.552C233.516 128.969 233.559 126.373 235.213 125.782Z" fill="#F78065"/>
<path opacity="0.2" d="M235.213 125.782C235.213 125.782 229.941 124.944 229.461 129.668C228.982 134.393 219.323 135.048 219.323 135.048L219.505 135.168C227.477 140.395 235.1 138.502 233.952 131.552C233.516 128.969 233.559 126.373 235.213 125.782Z" fill="#F5F5F5"/>
<path d="M235.213 125.782C235.213 125.782 231.122 126.691 231.456 130.403C231.791 134.114 225.38 138.584 219.323 135.048" stroke="#535461" stroke-miterlimit="10"/>
<path d="M173.15 130.38C173.15 130.38 171.739 125.589 173.414 122.062C174.127 120.588 174.343 118.922 174.028 117.315C173.868 116.552 173.64 115.806 173.346 115.085" stroke="#535461" stroke-width="2" stroke-miterlimit="10"/>
<path d="M174.398 112.856C174.398 113.444 173.334 115.146 173.334 115.146C173.334 115.146 172.271 113.444 172.271 112.856C172.271 112.574 172.383 112.303 172.582 112.104C172.782 111.904 173.052 111.792 173.334 111.792C173.616 111.792 173.887 111.904 174.086 112.104C174.286 112.303 174.398 112.574 174.398 112.856Z" fill="#F78065"/>
<path d="M176.155 116.11C175.837 116.603 174.019 117.453 174.019 117.453C174.019 117.453 174.05 115.446 174.371 114.953C174.445 114.832 174.542 114.726 174.658 114.643C174.773 114.559 174.904 114.5 175.043 114.468C175.182 114.436 175.325 114.433 175.465 114.458C175.606 114.482 175.739 114.535 175.859 114.612C175.978 114.69 176.081 114.791 176.161 114.908C176.241 115.026 176.296 115.159 176.324 115.299C176.351 115.438 176.351 115.582 176.322 115.721C176.293 115.861 176.236 115.993 176.155 116.11Z" fill="#F78065"/>
<path d="M176.078 121.669C175.555 121.932 173.555 121.751 173.555 121.751C173.555 121.751 174.596 120.033 175.121 119.769C175.373 119.642 175.665 119.62 175.933 119.709C176.2 119.797 176.422 119.989 176.549 120.241C176.676 120.492 176.698 120.785 176.609 121.052C176.521 121.32 176.329 121.542 176.078 121.669Z" fill="#F78065"/>
<path d="M175.073 125.86C174.6 126.21 172.609 126.362 172.609 126.362C172.609 126.362 173.346 124.494 173.818 124.144C173.93 124.054 174.059 123.988 174.197 123.949C174.335 123.91 174.479 123.899 174.621 123.918C174.763 123.936 174.9 123.983 175.024 124.055C175.147 124.128 175.255 124.225 175.34 124.34C175.425 124.455 175.486 124.587 175.52 124.726C175.553 124.866 175.558 125.01 175.533 125.151C175.509 125.293 175.457 125.428 175.379 125.548C175.302 125.669 175.201 125.772 175.082 125.853L175.073 125.86Z" fill="#F78065"/>
<path d="M171.784 117.567C172.207 117.976 174.168 118.401 174.168 118.401C174.168 118.401 173.689 116.451 173.259 116.042C173.055 115.855 172.787 115.755 172.51 115.763C172.233 115.771 171.971 115.886 171.778 116.085C171.585 116.283 171.477 116.549 171.477 116.826C171.477 117.102 171.585 117.368 171.778 117.567H171.784Z" fill="#F78065"/>
<path d="M170.671 122.485C171.196 122.751 173.196 122.567 173.196 122.567C173.196 122.567 172.153 120.851 171.63 120.587C171.505 120.519 171.367 120.477 171.226 120.463C171.084 120.449 170.941 120.464 170.805 120.506C170.669 120.549 170.543 120.618 170.435 120.71C170.326 120.802 170.237 120.915 170.173 121.042C170.108 121.169 170.07 121.307 170.061 121.45C170.051 121.592 170.07 121.734 170.117 121.869C170.163 122.003 170.236 122.127 170.331 122.233C170.426 122.339 170.542 122.424 170.671 122.485Z" fill="#F78065"/>
<path d="M170.246 127.414C170.719 127.764 172.719 127.921 172.719 127.921C172.719 127.921 171.982 126.055 171.51 125.705C171.398 125.615 171.269 125.549 171.131 125.51C170.993 125.471 170.849 125.461 170.707 125.479C170.565 125.497 170.428 125.544 170.304 125.617C170.18 125.689 170.073 125.786 169.988 125.901C169.902 126.017 169.841 126.148 169.808 126.287C169.775 126.427 169.77 126.571 169.794 126.713C169.819 126.854 169.871 126.989 169.949 127.109C170.026 127.23 170.127 127.334 170.246 127.414Z" fill="#F78065"/>
<path d="M170.08 129.914C170.08 129.914 172.659 129.398 173.346 128.712C174.032 128.025 177.13 126.819 177.473 127.68C177.816 128.541 182.114 131.462 179.191 131.977C176.268 132.493 172.314 132.659 171.464 132.321C170.614 131.982 170.08 129.914 170.08 129.914Z" fill="#A8A8A8"/>
<path opacity="0.2" d="M179.2 131.657C176.277 132.173 172.323 132.339 171.473 132.002C170.819 131.739 170.364 130.482 170.185 129.896L170.098 129.914C170.098 129.914 170.614 131.977 171.462 132.321C172.309 132.664 176.275 132.493 179.189 131.977C180.034 131.827 180.275 131.48 180.184 131.037C180.109 131.325 179.82 131.548 179.2 131.657Z" fill="black"/>
<path d="M151.224 145.334C151.224 145.334 159.049 143.768 161.137 141.681C163.226 139.595 172.614 135.941 173.657 138.55C174.7 141.159 187.747 150.029 178.884 151.592C170.021 153.156 158.015 153.681 155.406 152.635C152.797 151.59 151.224 145.334 151.224 145.334Z" fill="#A8A8A8"/>
<path opacity="0.2" d="M178.875 150.624C170.012 152.19 158.006 152.71 155.397 151.667C153.41 150.872 152.031 147.054 151.485 145.279L151.224 145.334C151.224 145.334 152.79 151.592 155.397 152.635C158.003 153.679 170.005 153.158 178.875 151.592C181.434 151.138 182.166 150.081 181.891 148.738C181.673 149.613 180.791 150.288 178.875 150.624Z" fill="black"/>
<path d="M20.5579 114.869C24.0418 120.012 22.9305 138.423 22.9305 138.423C22.9305 138.423 5.43142 132.627 1.93614 127.484C1.08587 126.262 0.486685 124.884 0.173334 123.428C-0.140017 121.973 -0.161299 120.47 0.110724 119.006C0.382746 117.542 0.94266 116.147 1.75799 114.901C2.57333 113.656 3.62785 112.584 4.86042 111.749C6.09299 110.914 7.47907 110.332 8.93828 110.037C10.3975 109.742 11.9008 109.739 13.361 110.03C14.8212 110.32 16.2093 110.897 17.4447 111.728C18.6801 112.559 19.7383 113.626 20.5579 114.869Z" fill="#F78065"/>
<path opacity="0.1" d="M20.5579 114.869C24.0418 120.012 22.9305 138.423 22.9305 138.423C22.9305 138.423 5.43142 132.627 1.93614 127.484C1.08587 126.262 0.486685 124.884 0.173334 123.428C-0.140017 121.973 -0.161299 120.47 0.110724 119.006C0.382746 117.542 0.94266 116.147 1.75799 114.901C2.57333 113.656 3.62785 112.584 4.86042 111.749C6.09299 110.914 7.47907 110.332 8.93828 110.037C10.3975 109.742 11.9008 109.739 13.361 110.03C14.8212 110.32 16.2093 110.897 17.4447 111.728C18.6801 112.559 19.7383 113.626 20.5579 114.869Z" fill="black"/>
<path d="M5.00659 111.878C5.00659 111.878 18.1287 122.007 22.9989 138.436" stroke="#535461" stroke-miterlimit="10"/>
<path d="M26.3031 124.482C26.3031 124.482 16.9853 122.892 23.36 138.325C23.36 138.325 29.8347 135.857 30.3392 129.716C30.4393 128.521 30.0979 127.332 29.3797 126.372C28.6614 125.412 27.6161 124.748 26.4417 124.507L26.3031 124.482Z" fill="#F78065"/>
<path d="M26.4395 124.464C26.4395 124.464 28.2167 133 23.3601 138.327" stroke="#535461" stroke-miterlimit="10"/>
<path d="M219.605 124.157C219.605 124.157 220.852 125.791 219.028 128.248C217.203 130.705 215.698 132.793 216.3 134.332C216.3 134.332 219.053 129.753 221.3 129.689C223.548 129.625 222.068 126.912 219.605 124.157Z" fill="#F78065"/>
<path opacity="0.1" d="M219.605 124.157C219.713 124.316 219.798 124.489 219.859 124.671C222.046 127.239 223.209 129.637 221.109 129.696C219.15 129.753 216.791 133.252 216.239 134.136C216.258 134.205 216.281 134.272 216.307 134.339C216.307 134.339 219.059 129.759 221.307 129.696C223.555 129.632 222.068 126.912 219.605 124.157Z" fill="black"/>
<path d="M221.925 126.239C221.925 126.814 221.859 127.28 221.78 127.28C221.7 127.28 221.636 126.825 221.636 126.239C221.636 125.653 221.718 125.935 221.798 125.935C221.877 125.935 221.925 125.664 221.925 126.239Z" fill="#FFD037"/>
<path d="M222.721 126.925C222.216 127.2 221.777 127.366 221.739 127.296C221.7 127.225 222.08 126.948 222.584 126.673C223.089 126.398 222.889 126.598 222.927 126.673C222.966 126.748 223.225 126.65 222.721 126.925Z" fill="#FFD037"/>
<path d="M213.01 124.157C213.01 124.157 211.762 125.791 213.585 128.248C215.407 130.705 216.914 132.793 216.312 134.332C216.312 134.332 213.557 129.753 211.312 129.689C209.067 129.625 210.544 126.912 213.01 124.157Z" fill="#F78065"/>
<path opacity="0.1" d="M213.01 124.157C212.901 124.316 212.815 124.488 212.755 124.671C210.569 127.239 209.403 129.637 211.505 129.696C213.462 129.753 215.823 133.252 216.373 134.136C216.355 134.205 216.333 134.272 216.307 134.339C216.307 134.339 213.553 129.759 211.307 129.696C209.062 129.632 210.544 126.912 213.01 124.157Z" fill="black"/>
<path d="M210.689 126.239C210.689 126.814 210.753 127.28 210.833 127.28C210.912 127.28 210.976 126.825 210.976 126.239C210.976 125.653 210.896 125.935 210.817 125.935C210.737 125.935 210.689 125.664 210.689 126.239Z" fill="#FFD037"/>
<path d="M209.892 126.925C210.396 127.2 210.837 127.366 210.876 127.296C210.914 127.225 210.535 126.948 210.03 126.673C209.526 126.398 209.723 126.598 209.687 126.673C209.651 126.748 209.387 126.65 209.892 126.925Z" fill="#FFD037"/>
<path d="M211.087 134.125C211.087 134.125 214.578 134.016 215.632 133.268C216.687 132.521 221.003 131.625 221.264 132.825C221.525 134.025 226.509 138.8 222.568 138.832C218.628 138.863 213.412 138.218 212.362 137.579C211.312 136.941 211.087 134.125 211.087 134.125Z" fill="#A8A8A8"/>
<path opacity="0.2" d="M222.634 138.407C218.694 138.438 213.478 137.793 212.428 137.154C211.628 136.668 211.31 134.92 211.203 134.114H211.087C211.087 134.114 211.314 136.927 212.358 137.568C213.401 138.209 218.623 138.852 222.564 138.82C223.7 138.82 224.096 138.407 224.073 137.809C223.914 138.179 223.482 138.407 222.634 138.407Z" fill="black"/>
<path d="M229.068 157.678C229.485 157.339 229.789 156.879 229.938 156.363C230.052 155.84 229.829 155.226 229.329 155.024C228.77 154.81 228.175 155.197 227.72 155.59C227.266 155.983 226.75 156.426 226.157 156.344C226.461 156.068 226.689 155.717 226.818 155.326C226.947 154.936 226.973 154.519 226.893 154.115C226.867 153.948 226.796 153.791 226.688 153.66C226.377 153.331 225.816 153.472 225.443 153.733C224.261 154.565 223.932 156.169 223.925 157.615C223.807 157.094 223.907 156.551 223.904 156.024C223.902 155.497 223.754 154.888 223.302 154.608C223.024 154.454 222.711 154.376 222.393 154.381C221.861 154.363 221.257 154.415 220.907 154.804C220.452 155.288 220.573 156.097 220.964 156.622C221.355 157.147 221.952 157.485 222.502 157.853C222.942 158.116 223.318 158.474 223.602 158.901C223.634 158.961 223.661 159.023 223.682 159.087H227.013C227.759 158.712 228.45 158.238 229.068 157.678Z" fill="#F78065"/>
<path d="M71.7645 162.399C72.1816 162.058 72.4859 161.599 72.6372 161.083C72.7486 160.562 72.5258 159.946 72.0281 159.744C71.4691 159.531 70.8714 159.919 70.4191 160.31C69.9669 160.701 69.4464 161.149 68.8533 161.065C69.1583 160.788 69.3865 160.438 69.5156 160.047C69.6446 159.656 69.6702 159.239 69.5896 158.835C69.5638 158.668 69.4931 158.511 69.3851 158.381C69.0737 158.049 68.5124 158.19 68.1397 158.451C66.9579 159.283 66.6284 160.89 66.6239 162.333C66.5034 161.812 66.6034 161.269 66.6011 160.742C66.5989 160.215 66.4511 159.606 66.0012 159.326C65.7219 159.177 65.4086 159.103 65.0921 159.112C64.5603 159.092 63.9694 159.147 63.6058 159.535C63.1513 160.017 63.2718 160.826 63.6649 161.353C64.0581 161.88 64.6535 162.219 65.2012 162.585C65.642 162.847 66.018 163.205 66.3011 163.633C66.3343 163.693 66.3616 163.756 66.383 163.821H69.7055C70.453 163.442 71.1457 162.964 71.7645 162.399Z" fill="#F78065"/>
<path d="M49.2656 141.236C49.2656 141.236 46.0704 130.393 49.8633 122.412C51.4748 119.075 51.9612 115.306 51.2496 111.669C50.8965 109.946 50.3869 108.258 49.727 106.626" stroke="#535461" stroke-width="2" stroke-miterlimit="10"/>
<path d="M52.0883 101.59C52.0883 102.918 49.6816 106.772 49.6816 106.772C49.6816 106.772 47.2749 102.908 47.2749 101.59C47.2749 100.952 47.5285 100.34 47.9798 99.8885C48.4312 99.4372 49.0433 99.1836 49.6816 99.1836C50.3199 99.1836 50.9321 99.4372 51.3834 99.8885C51.8348 100.34 52.0883 100.952 52.0883 101.59Z" fill="#F78065"/>
<path d="M56.0654 108.944C55.3427 110.058 51.2292 111.985 51.2292 111.985C51.2292 111.985 51.302 107.44 52.0247 106.329C52.1964 106.063 52.4188 105.835 52.679 105.655C52.9392 105.476 53.2322 105.349 53.5412 105.283C53.8503 105.217 54.1694 105.212 54.4802 105.27C54.791 105.327 55.0876 105.445 55.3529 105.616C55.6182 105.788 55.8471 106.01 56.0265 106.271C56.2059 106.531 56.3323 106.824 56.3985 107.133C56.4646 107.442 56.4692 107.761 56.4121 108.072C56.355 108.383 56.2371 108.679 56.0654 108.944Z" fill="#F78065"/>
<path d="M55.8903 121.521C54.704 122.119 50.1792 121.705 50.1792 121.705C50.1792 121.705 52.5382 117.824 53.7245 117.224C54.0074 117.074 54.3174 116.982 54.6362 116.953C54.9551 116.925 55.2765 116.96 55.5815 117.057C55.8866 117.155 56.1691 117.312 56.4127 117.519C56.6563 117.727 56.856 117.981 57 118.267C57.1441 118.553 57.2297 118.865 57.2518 119.184C57.2739 119.504 57.232 119.824 57.1287 120.127C57.0254 120.43 56.8626 120.71 56.6499 120.949C56.4373 121.188 56.179 121.383 55.8903 121.521Z" fill="#F78065"/>
<path d="M53.6155 131.009C52.5474 131.798 48.0181 132.146 48.0181 132.146C48.0181 132.146 49.6862 127.921 50.7452 127.13C50.9973 126.923 51.2888 126.77 51.602 126.679C51.9152 126.589 52.2435 126.563 52.567 126.603C52.8906 126.643 53.2026 126.748 53.4841 126.913C53.7657 127.077 54.0109 127.297 54.205 127.559C54.399 127.821 54.5378 128.12 54.6129 128.437C54.688 128.754 54.6978 129.083 54.6419 129.404C54.5859 129.726 54.4653 130.032 54.2873 130.305C54.1093 130.578 53.8776 130.813 53.6064 130.993L53.6155 131.009Z" fill="#F78065"/>
<path d="M46.1772 112.242C47.1294 113.169 51.5701 114.128 51.5701 114.128C51.5701 114.128 50.4815 109.717 49.5248 108.792C49.0673 108.348 48.452 108.103 47.8142 108.112C47.1763 108.121 46.5683 108.384 46.1238 108.841C45.6793 109.299 45.4347 109.914 45.4439 110.552C45.453 111.189 45.7152 111.798 46.1726 112.242H46.1772Z" fill="#F78065"/>
<path d="M43.657 123.371C44.8433 123.971 49.3681 123.557 49.3681 123.557C49.3681 123.557 47.0091 119.673 45.8228 119.076C45.2532 118.789 44.5929 118.739 43.987 118.939C43.3812 119.139 42.8795 119.571 42.5923 120.141C42.3051 120.71 42.2559 121.37 42.4556 121.976C42.6553 122.582 43.0874 123.084 43.657 123.371Z" fill="#F78065"/>
<path d="M42.6932 134.525C43.7522 135.316 48.2975 135.68 48.2975 135.68C48.2975 135.68 46.6294 131.452 45.5703 130.664C45.3182 130.457 45.0267 130.304 44.7135 130.213C44.4004 130.123 44.072 130.097 43.7485 130.137C43.425 130.177 43.113 130.282 42.8314 130.447C42.5498 130.611 42.3046 130.831 42.1106 131.093C41.9166 131.355 41.7778 131.654 41.7027 131.971C41.6276 132.288 41.6177 132.617 41.6737 132.938C41.7296 133.26 41.8503 133.566 42.0283 133.839C42.2063 134.112 42.4379 134.346 42.7091 134.527L42.6932 134.525Z" fill="#F78065"/>
<path d="M52.0883 101.59C52.0883 102.918 49.6816 106.772 49.6816 106.772C49.6816 106.772 47.2749 102.908 47.2749 101.59C47.2749 100.952 47.5285 100.34 47.9798 99.8885C48.4312 99.4372 49.0433 99.1836 49.6816 99.1836C50.3199 99.1836 50.9321 99.4372 51.3834 99.8885C51.8348 100.34 52.0883 100.952 52.0883 101.59Z" fill="#FC6681"/>
<path d="M56.0654 108.944C55.3427 110.058 51.2292 111.985 51.2292 111.985C51.2292 111.985 51.302 107.44 52.0247 106.329C52.1964 106.063 52.4188 105.835 52.679 105.655C52.9392 105.476 53.2322 105.349 53.5412 105.283C53.8503 105.217 54.1694 105.212 54.4802 105.27C54.791 105.327 55.0876 105.445 55.3529 105.616C55.6182 105.788 55.8471 106.01 56.0265 106.271C56.2059 106.531 56.3323 106.824 56.3985 107.133C56.4646 107.442 56.4692 107.761 56.4121 108.072C56.355 108.383 56.2371 108.679 56.0654 108.944Z" fill="#FC6681"/>
<path d="M55.8903 121.521C54.704 122.119 50.1792 121.705 50.1792 121.705C50.1792 121.705 52.5382 117.824 53.7245 117.224C54.0074 117.074 54.3174 116.982 54.6362 116.953C54.9551 116.925 55.2765 116.96 55.5815 117.057C55.8866 117.155 56.1691 117.312 56.4127 117.519C56.6563 117.727 56.856 117.981 57 118.267C57.1441 118.553 57.2297 118.865 57.2518 119.184C57.2739 119.504 57.232 119.824 57.1287 120.127C57.0254 120.43 56.8626 120.71 56.6499 120.949C56.4373 121.188 56.179 121.383 55.8903 121.521Z" fill="#FC6681"/>
<path d="M53.6155 131.009C52.5474 131.798 48.0181 132.146 48.0181 132.146C48.0181 132.146 49.6862 127.921 50.7452 127.13C50.9973 126.923 51.2888 126.77 51.602 126.679C51.9152 126.589 52.2435 126.563 52.567 126.603C52.8906 126.643 53.2026 126.748 53.4841 126.913C53.7657 127.077 54.0109 127.297 54.205 127.559C54.399 127.821 54.5378 128.12 54.6129 128.437C54.688 128.754 54.6978 129.083 54.6419 129.404C54.5859 129.726 54.4653 130.032 54.2873 130.305C54.1093 130.578 53.8776 130.813 53.6064 130.993L53.6155 131.009Z" fill="#FC6681"/>
<path d="M46.1772 112.242C47.1294 113.169 51.5701 114.128 51.5701 114.128C51.5701 114.128 50.4815 109.717 49.5248 108.792C49.0673 108.348 48.452 108.103 47.8142 108.112C47.1763 108.121 46.5683 108.384 46.1238 108.841C45.6793 109.299 45.4347 109.914 45.4439 110.552C45.453 111.189 45.7152 111.798 46.1726 112.242H46.1772Z" fill="#FC6681"/>
<path d="M43.657 123.371C44.8433 123.971 49.3681 123.557 49.3681 123.557C49.3681 123.557 47.0091 119.673 45.8228 119.076C45.2532 118.789 44.5929 118.739 43.987 118.939C43.3812 119.139 42.8795 119.571 42.5923 120.141C42.3051 120.71 42.2559 121.37 42.4556 121.976C42.6553 122.582 43.0874 123.084 43.657 123.371Z" fill="#FC6681"/>
<path d="M42.6932 134.525C43.7522 135.316 48.2975 135.68 48.2975 135.68C48.2975 135.68 46.6294 131.452 45.5703 130.664C45.3182 130.457 45.0267 130.304 44.7135 130.213C44.4004 130.123 44.072 130.097 43.7485 130.137C43.425 130.177 43.113 130.282 42.8314 130.447C42.5498 130.611 42.3046 130.831 42.1106 131.093C41.9166 131.355 41.7778 131.654 41.7027 131.971C41.6276 132.288 41.6177 132.617 41.6737 132.938C41.7296 133.26 41.8503 133.566 42.0283 133.839C42.2063 134.112 42.4379 134.346 42.7091 134.527L42.6932 134.525Z" fill="#FC6681"/>
<path d="M41.7183 140.552C41.7183 140.552 45.6067 139.779 46.643 138.75C47.6793 137.72 52.3473 135.918 52.8654 137.207C53.3836 138.495 59.8651 142.868 55.4585 143.64C51.0519 144.413 45.0885 144.67 43.7909 144.156C42.4932 143.643 41.7183 140.552 41.7183 140.552Z" fill="#A8A8A8"/>
<path opacity="0.2" d="M55.4585 143.163C51.0496 143.934 45.0885 144.193 43.7909 143.677C42.8046 143.286 42.1182 141.404 41.8478 140.525L41.7183 140.552C41.7183 140.552 42.4955 143.641 43.7909 144.156C45.0863 144.672 51.0496 144.413 55.4585 143.641C56.7289 143.413 57.0925 142.895 56.9561 142.231C56.847 142.663 56.4039 142.997 55.4585 143.163Z" fill="black"/>
<path opacity="0.1" d="M244.46 17.0491V61.0855C244.46 68.3852 235.449 71.8964 230.559 66.4762L230.443 66.3489C228.866 64.5831 226.707 62.4355 224.534 63.3763C223.852 63.665 223.348 64.2149 222.748 64.6331C223.181 65.5943 223.555 66.5809 223.868 67.5875C225.743 73.7963 224.282 80.505 222.277 86.6774C220.273 92.8498 217.714 98.9632 217.371 105.442C217.207 108.554 217.564 111.667 217.918 114.76C218.6 120.637 219.298 126.628 221.755 132.009C223.1 134.964 225.002 137.932 224.6 141.143C214.013 141.613 203.423 140.268 193.29 137.166C200.303 130.105 200.294 118.901 199.826 108.96C199.452 100.955 199.073 92.9476 198.69 84.9389C198.581 82.5936 198.449 80.1664 197.379 78.0756C195.926 75.228 192.899 73.4417 189.781 72.7281C186.663 72.0145 183.418 72.2077 180.22 72.41C179.985 71.1609 180.222 69.8689 180.886 68.7851C185.873 70.945 191.206 72.1957 196.633 72.4781C197.315 72.5122 198.081 72.5054 198.588 72.0441C199.094 71.5827 199.172 70.8214 199.203 70.1351C199.411 66.1604 199.05 62.1764 198.131 58.3039C197.956 58.347 197.781 58.3902 197.606 58.4448C194.933 59.2538 192.513 61.2514 189.729 61.0401C185.838 60.7447 183.531 56.3858 179.866 55.0472C177.057 54.02 173.968 54.9268 171.025 55.4608C168.082 55.9949 164.594 55.9585 162.66 53.6768C160.219 50.7952 161.751 46.2249 160.16 42.7933C157.912 37.9072 151.108 37.8163 145.767 38.4753C147.909 35.2482 151.093 32.853 154.787 31.6893C152.897 28.2963 146.252 28.4486 146.29 24.5647C146.304 23.0579 147.504 21.8603 148.617 20.8444L153.617 16.2855L144.77 12.9448C142.788 12.1971 140.575 11.2153 139.913 9.20408C139.268 7.23145 140.44 5.11337 141.899 3.6339L141.938 3.59754C143.096 2.44988 144.469 1.5418 145.978 0.925268C147.487 0.308738 149.103 -0.00413974 150.733 0.00453977H227.418C231.938 0.00514245 236.273 1.80117 239.469 4.99759C242.665 8.19401 244.46 12.529 244.46 17.0491Z" fill="#F78065"/>
<path d="M70.7418 151.879C70.7418 151.879 75.9484 153.308 78.4573 151.408C80.9663 149.508 82.0526 150.12 82.0526 150.12C82.0526 150.12 88.0318 149.788 88.5227 148.377C89.0136 146.965 86.2297 141.829 86.2297 141.827C86.0297 141.384 85.7433 140.793 85.6115 140.793L85.6388 138.627L86.5046 129.568C88.5045 124.444 86.541 117.819 86.541 117.819L86.1842 116.176C85.9819 115.255 86.1014 114.292 86.5228 113.449L90.159 106.142C90.3526 105.661 90.5804 105.194 90.8408 104.745C91.0681 104.327 91.3703 103.811 91.7498 103.193C91.8612 103.018 91.9771 102.831 92.1044 102.638C92.5453 101.956 93.0793 101.179 93.7225 100.286C95.3315 98.0587 96.1769 95.2861 96.6132 93.218L96.8064 93.8612H96.8382H96.8905L96.9632 93.8748H96.9769L97.07 93.8884H97.0882H97.1064L98.2222 108.101C98.2927 113.644 100.327 116.712 100.327 116.712L100.045 128.948C100.429 131.902 99.5904 135.827 99.2063 137.393L98.3245 139.379C97.9787 139.553 97.6802 139.808 97.4545 140.122C97.2289 140.436 97.0829 140.801 97.0291 141.184C96.8541 142.65 95.311 145.809 95.311 145.809C94.7474 146.588 93.4498 148.633 93.4498 148.633C93.4498 148.633 92.818 150.586 93.2043 151.317C93.5907 152.049 96.745 151.981 96.745 151.981C100.358 152.781 103.129 150.829 102.954 149.504C102.779 148.179 103.513 147.831 103.513 147.831C104.951 147.377 104.811 146.402 104.811 146.402C105.12 144.394 104.737 142.34 103.724 140.579L103.497 141.107C103.434 140.052 103.582 138.996 103.931 138C103.886 138.032 103.842 138.063 103.797 138.091L103.756 138.118H103.742C103.97 136.12 106.07 132.416 106.07 132.416C109.933 125.653 108.524 116.483 108.524 116.483L107.933 113.635L107.899 112.558C107.814 109.986 108.005 107.412 108.469 104.881C108.676 103.761 108.89 102.406 109.056 100.911C109.401 97.7564 110.519 94.502 111.033 93.1248L111.187 93.0976H111.208L111.844 92.9862H111.885C111.885 92.9862 112.008 92.3203 112.112 91.1863C112.174 90.4636 112.224 89.5478 112.224 88.4955C112.241 85.3161 111.756 82.1539 110.788 79.1255L110.901 78.9574C110.901 78.9574 111.178 78.5847 111.681 77.937C112.608 76.762 114.046 74.9826 115.824 72.9577C119.005 69.3329 118.067 65.6603 118.067 65.6603C118.067 65.6603 115.776 57.2517 114.746 52.1792C114.162 49.2975 113.062 47.334 112.222 46.1749C112.412 45.3769 112.518 44.5611 112.54 43.741C112.61 42.2411 112.556 40.6775 111.883 39.3321C111.21 37.9867 109.772 36.9186 108.272 37.1004C108.059 37.1515 107.837 37.1515 107.624 37.1004C107.449 37.0209 107.301 36.8912 107.199 36.7277C106.32 35.5187 106.263 33.8915 106.535 32.4234C106.808 30.9553 107.372 29.5508 107.622 28.0781C107.872 26.6055 107.76 24.9715 106.822 23.8056C105.722 22.4421 103.802 22.0512 102.37 21.0239C101.365 20.3013 100.611 19.2627 99.5517 18.6241C98.4927 17.9855 97.5064 18.2264 96.3496 18.4695C94.4133 18.8763 92.5748 19.0627 90.7453 19.8967C88.8914 20.7351 87.2286 21.9439 85.8592 23.4488C85.3741 23.9351 85.0024 24.5226 84.7706 25.1692C84.3161 26.6737 85.2047 28.2781 85.0184 29.8371C84.8865 30.9416 84.2343 31.9052 83.7162 32.8915C83.198 33.8778 82.8071 35.0505 83.2116 36.0868C83.848 37.6981 85.9388 38.0413 87.4432 38.9003C87.6459 38.9983 87.8192 39.148 87.9455 39.3344C88.3182 39.9866 87.5546 40.6639 87.0751 41.2434C86.7998 41.5808 86.6048 41.9763 86.5046 42.4001C85.8786 42.658 85.3254 43.0655 84.8935 43.5869C84.4616 44.1083 84.1642 44.7278 84.0275 45.3909C83.5139 47.6862 84.3025 50.5838 84.9979 52.4974C84.2388 56.763 85.2252 58.4448 85.9524 59.0879C86.3187 59.4 86.6194 59.7816 86.837 60.2108C87.0547 60.6399 87.1851 61.1079 87.2205 61.5878V61.6673C87.2682 62.4446 87.3501 63.215 87.4591 63.9854C87.4341 63.8059 87.4091 63.615 87.3955 63.5309C86.8001 64.6331 85.6683 67.4443 85.0297 72.1668C84.8968 73.181 84.704 74.1865 84.4525 75.178C83.9966 76.9339 83.8331 78.7528 83.9684 80.5618L84.0843 82.0959C83.9722 82.1011 83.8621 82.0647 83.7752 81.9936L84.5752 83.4594V85.9093C84.5736 87.0235 84.3679 88.1281 83.9684 89.1682C83.9116 89.3205 83.848 89.4705 83.7821 89.6227C83.577 90.0386 83.4845 90.5009 83.5139 90.9636C81.789 93.593 77.8414 108.372 77.8414 108.372C75.7006 113.217 78.0164 116.355 78.0164 116.355C78.0164 116.355 79.1391 129.848 79.3482 130.543C79.5573 131.239 80.0141 139.468 80.0141 139.468C80.0141 139.695 80.0141 139.909 80.0141 140.122C79.8897 140.069 79.7592 140.03 79.6254 140.009C77.7483 139.904 77.2392 142.868 77.2392 142.868L73.4008 146.545C73.4008 146.545 71.6463 146.249 69.0692 148.183C66.492 150.117 70.7418 151.879 70.7418 151.879ZM109.067 73.9099V73.869L108.963 73.9304L108.919 73.9554H108.899L107.113 67.7284C106.638 66.0547 106.592 64.2882 106.981 62.5923L108.344 56.6017V55.1609L112.692 66.7512C112.981 68.3034 110.399 72.0873 109.067 73.9099Z" fill="url(#paint0_linear)"/>
<path d="M110.969 92.7499C110.969 92.7499 109.213 97.0178 108.765 101.115C108.604 102.59 108.394 103.929 108.19 105.036C107.734 107.536 107.546 110.077 107.631 112.617L107.663 113.683L108.249 116.506C108.249 116.506 109.626 125.56 105.84 132.239C105.84 132.239 103.602 136.232 103.533 138.127L102.018 138.711L98.954 137.85C98.954 137.85 100.433 132.548 99.9517 128.83L100.227 116.746C100.227 116.746 98.2313 113.717 98.1609 108.242L96.9905 93.243L110.969 92.7499Z" fill="#FDC2CC"/>
<path d="M96.9904 90.6159C96.9904 90.6159 96.6132 96.4679 93.7201 100.495C90.8271 104.522 90.2112 106.279 90.2112 106.279L86.6455 113.494C86.2327 114.329 86.1149 115.279 86.3114 116.19L86.6614 117.812C86.6614 117.812 88.5908 124.355 86.6273 129.416L85.6978 139.188H80.2594C80.2594 139.188 79.8049 131.064 79.6049 130.375C79.4049 129.687 78.2959 116.362 78.2959 116.362C78.2959 116.362 76.0233 113.265 78.1232 108.479C78.1232 108.479 82.8752 90.575 84.1479 90.8863C85.4205 91.1977 96.9904 90.6159 96.9904 90.6159Z" fill="#FDC2CC"/>
<g opacity="0.1">
<path opacity="0.1" d="M86.1115 117.812L85.7616 116.19C85.564 115.279 85.6818 114.329 86.0956 113.494L89.6591 106.279C89.6591 106.279 90.2772 104.524 93.1703 100.495C95.9497 96.6315 96.4065 91.0681 96.4383 90.6409L96.9906 90.6159C96.9906 90.6159 96.6133 96.4679 93.7203 100.495C90.8272 104.522 90.2113 106.279 90.2113 106.279L86.6456 113.494C86.2328 114.329 86.1151 115.279 86.3115 116.19L86.6615 117.812C86.6615 117.812 88.591 124.355 86.6274 129.416L85.6979 139.188H85.1479L86.0774 129.416C88.0387 124.355 86.1115 117.812 86.1115 117.812Z" fill="black"/>
</g>
<path opacity="0.1" d="M102.981 138.127C103.049 136.232 105.288 132.239 105.288 132.239C109.076 125.56 107.699 116.506 107.699 116.506L107.113 113.683L107.079 112.617C106.996 110.077 107.184 107.536 107.64 105.036C107.842 103.929 108.054 102.59 108.215 101.115C108.644 97.1701 110.288 93.068 110.41 92.768L110.969 92.7499C110.969 92.7499 109.213 97.0178 108.765 101.115C108.604 102.59 108.394 103.929 108.19 105.036C107.734 107.536 107.546 110.077 107.631 112.617L107.663 113.683L108.249 116.506C108.249 116.506 109.626 125.56 105.84 132.239C105.84 132.239 103.601 136.232 103.533 138.127L102.017 138.711L101.704 138.634L102.981 138.127Z" fill="black"/>
<path d="M101.227 138.057C101.639 138.222 102.087 138.281 102.528 138.227C102.969 138.173 103.389 138.008 103.749 137.748C103.248 139.212 103.177 140.789 103.545 142.293C104.163 144.77 97.7588 140.295 97.7588 140.295L99.1383 137.17C99.1383 137.17 99.6428 138.161 101.227 138.057Z" fill="#D39999"/>
<path opacity="0.1" d="M101.704 138.195C102.056 138.267 102.419 138.263 102.769 138.185C103.12 138.107 103.45 137.955 103.738 137.741C103.236 139.205 103.165 140.783 103.533 142.286C104.152 144.763 97.7473 140.288 97.7473 140.288L99.1268 137.164C99.1268 137.164 99.5245 137.925 100.69 138.043C101.022 138.084 101.368 138.132 101.704 138.195Z" fill="black"/>
<path d="M86.698 80.1346H89.3729V64.9535L87.3661 64.5922L86.698 80.1346Z" fill="#FDC2CC"/>
<path opacity="0.05" d="M86.698 80.1346H89.3729V64.9535L87.3661 64.5922L86.698 80.1346Z" fill="black"/>
<path d="M99.7108 139.227C99.7108 139.227 101.397 139.125 102.156 140.638L103.086 141.363L103.54 140.295C104.535 142.036 104.91 144.063 104.606 146.045C104.606 146.045 104.745 147.009 103.333 147.456C103.333 147.456 102.611 147.802 102.781 149.108C102.952 150.415 100.233 152.345 96.6882 151.554C96.6882 151.554 93.5884 151.622 93.2111 150.899C92.8339 150.177 93.452 148.247 93.452 148.247C93.452 148.247 94.7247 146.229 95.311 145.481C95.311 145.481 96.8246 142.361 96.9973 140.916C97.17 139.47 98.8154 138.436 99.7108 139.227Z" fill="#7E5659"/>
<path d="M85.7503 140.502L85.7776 138.363C85.7776 138.363 82.6982 139.245 80.2051 138.248C80.2051 138.248 80.4142 140.397 80.0688 140.691C79.7233 140.984 81.2232 143.754 81.2232 143.754L82.8982 145.511L85.7776 144.461L86.5594 142C86.5594 142 85.9571 140.502 85.7503 140.502Z" fill="#D39999"/>
<path opacity="0.1" d="M85.7503 140.502L85.7776 138.363C85.7776 138.363 82.6982 139.245 80.2051 138.248C80.2051 138.248 80.4142 140.397 80.0688 140.691C79.7233 140.984 81.2232 143.754 81.2232 143.754L82.8982 145.511L85.7776 144.461L86.5594 142C86.5594 142 85.9571 140.502 85.7503 140.502Z" fill="black"/>
<path d="M79.8869 139.727C79.8869 139.727 81.5232 139.916 81.3163 142C81.1095 144.084 81.4027 142 81.4027 142C81.4027 142 83.1413 142.704 83.7594 143.686C84.3776 144.668 85.498 142.809 85.5775 142.275C85.657 141.741 86.357 141.522 86.357 141.522C86.357 141.522 89.0841 146.595 88.6069 147.99C88.1296 149.386 82.2549 149.711 82.2549 149.711C82.2549 149.711 81.1891 149.108 78.7256 150.986C76.2621 152.863 71.1532 151.44 71.1532 151.44C71.1532 151.44 66.9875 149.702 69.5169 147.804C72.0464 145.906 73.769 146.184 73.769 146.184L77.5393 142.547C77.5393 142.547 78.037 139.625 79.8869 139.727Z" fill="#7E5659"/>
<path d="M99.4313 19.8376C100.472 20.4671 101.213 21.4944 102.199 22.2057C103.604 23.2216 105.488 23.5988 106.57 24.9533C107.479 26.1055 107.599 27.7191 107.354 29.1735C107.108 30.628 106.556 32.0143 106.288 33.4642C106.02 34.9141 106.076 36.5209 106.94 37.714C107.039 37.8757 107.183 38.004 107.356 38.0822C107.565 38.1324 107.783 38.1324 107.992 38.0822C109.465 37.9049 110.876 38.9571 111.538 40.2866C112.199 41.6161 112.251 43.1592 112.183 44.6409C112.126 45.8568 111.99 47.0976 111.456 48.1907C110.547 50.0497 108.649 51.1997 106.776 52.0792C105.56 52.6513 104.313 53.155 103.04 53.5882C102.168 53.8859 101.243 54.1518 100.334 53.995C98.7768 53.7268 97.6746 52.3133 96.1974 51.7565C94.9861 51.302 93.643 51.4656 92.3544 51.5792C91.2567 51.6747 90 51.6747 89.2455 50.8724C88.2751 49.8407 88.7114 48.1794 89.2068 46.8545C88.6812 46.8198 88.1753 46.6409 87.7448 46.3373C87.3144 46.0337 86.976 45.6173 86.7669 45.1338C86.5578 44.6503 86.4861 44.1185 86.5597 43.5969C86.6334 43.0753 86.8494 42.5841 87.1842 42.1774C87.6546 41.6047 88.4023 40.9366 88.0364 40.2911C87.9131 40.1076 87.7438 39.9595 87.5456 39.8616C86.0593 39.0139 84.0162 38.6753 83.3912 37.0845C82.989 36.0595 83.3799 34.9028 83.8866 33.9278C84.3934 32.9529 85.0343 32.0029 85.1639 30.9121C85.3479 29.3712 84.4821 27.7872 84.9207 26.3009C85.1482 25.6637 85.5128 25.0842 85.9888 24.6033C87.3323 23.1192 88.9649 21.9251 90.7863 21.0944C92.5839 20.2717 94.3884 20.0876 96.2883 19.6854C97.411 19.4445 98.3541 19.1877 99.4313 19.8376Z" fill="#865A61"/>
<path d="M89.3706 42.782C89.3706 42.782 85.0094 42.5547 84.1845 46.2704C83.3595 49.9861 85.973 55.3131 85.973 55.3131L89.3706 42.782Z" fill="#FDC2CC"/>
<path opacity="0.05" d="M89.3706 42.782C89.3706 42.782 85.0094 42.5547 84.1845 46.2704C83.3595 49.9861 85.973 55.3131 85.973 55.3131L89.3706 42.782Z" fill="black"/>
<path d="M86.5933 53.845L88.2454 55.154L95.9587 55.4972L100.77 52.1928L105.667 43.7842C102.672 43.0206 101.463 40.9548 101.013 39.0117C100.725 37.7038 100.692 36.3528 100.915 35.0323C100.915 35.0323 93.0657 30.9689 94.0293 37.3049C94.1634 38.0833 94.1878 38.8765 94.102 39.6616C93.6474 43.3751 90.0408 42.6774 90.0408 42.6774L88.6591 44.8114L87.0682 50.0384L86.5933 53.845Z" fill="#FDC2CC"/>
<path opacity="0.1" d="M94.0293 37.3186C94.1634 38.0969 94.1879 38.8902 94.102 39.6753C95.2111 40.1831 96.4342 40.3906 97.6487 40.2769C98.8632 40.1632 100.027 39.7324 101.022 39.0276C100.735 37.7197 100.701 36.3687 100.924 35.0482C100.924 35.0482 93.068 30.9848 94.0293 37.3186Z" fill="black"/>
<path d="M96.9974 40.0275C100.838 40.0275 103.952 36.914 103.952 33.0733C103.952 29.2326 100.838 26.1191 96.9974 26.1191C93.1567 26.1191 90.0432 29.2326 90.0432 33.0733C90.0432 36.914 93.1567 40.0275 96.9974 40.0275Z" fill="#FDC2CC"/>
<path d="M92.0793 52.5178C92.2452 52.5292 92.4134 52.5451 92.5793 52.561C93.4884 52.6519 97.2995 52.8564 99.4699 50.2657C101.897 47.3658 105.129 43.7842 105.26 43.6387L108.549 44.6341C108.549 44.6341 105.947 43.7069 104.213 48.5476C103.836 49.5648 103.798 50.6767 104.105 51.7172C104.412 52.7577 105.048 53.6708 105.917 54.32C106.556 54.7812 107.291 55.092 108.067 55.229C108.068 55.2308 108.069 55.2327 108.069 55.2347C108.069 55.2367 108.068 55.2387 108.067 55.2404V57.3653L106.722 63.2741C106.34 64.949 106.383 66.6929 106.849 68.3465L108.894 75.5962C108.894 75.5962 108.894 75.5962 108.894 75.6075C108.585 75.8212 95.8564 84.4707 87.3546 78.5006C87.3864 78.2415 88.4363 69.7328 87.7091 65.5694C87.5216 64.5048 87.3942 63.4304 87.3273 62.3514C87.3273 62.3241 87.3273 62.2991 87.3273 62.2719C87.2515 61.3197 86.8042 60.4356 86.0819 59.8106C85.316 59.1288 84.2775 57.3108 85.3024 52.4837C85.5608 51.291 85.9416 50.1281 86.4387 49.0134L89.2886 42.5706C89.2903 42.5696 89.2923 42.5691 89.2942 42.5691C89.2962 42.5691 89.2982 42.5696 89.2999 42.5706L91.9271 42.6229V42.6388C91.6998 42.9229 88.6522 46.7295 88.3227 49.1816C87.9977 51.5156 87.6 52.2315 92.0793 52.5178Z" fill="#D39999"/>
<path d="M110.762 45.7659C110.762 45.7659 113.333 47.9703 114.342 52.9723C115.351 57.9743 117.612 66.2853 117.612 66.2853C117.612 66.2853 118.521 69.9215 115.408 73.4917C112.294 77.062 110.222 79.8732 110.222 79.8732L108.176 82.8936C107.827 83.409 107.302 83.7798 106.699 83.9367C105.763 84.1844 104.329 84.3617 103.083 83.6799C102.629 83.428 102.284 83.0173 102.114 82.5266C101.944 82.0358 101.962 81.4996 102.163 81.0209L102.606 79.9642C102.606 79.9642 98.3836 82.6277 98.0177 81.1573C97.6518 79.6869 102.929 78.2211 102.929 78.2211C102.929 78.2211 107.29 77.487 108.156 75.4212C108.156 75.4212 112.837 69.4079 112.474 67.3421L107.94 55.229C107.94 55.229 102.313 54.4836 104.242 48.1317C106.172 41.7797 110.762 45.7659 110.762 45.7659Z" fill="#FDC2CC"/>
<path d="M83.7253 91.4863C83.7253 91.4863 94.0543 93.5521 96.486 93.2771L96.7473 94.1498C96.7473 94.1498 100.67 95.027 109.531 93.6203C110.11 93.5294 110.711 93.4271 111.335 93.3135L111.542 93.2771C111.542 93.2771 111.665 92.6203 111.769 91.4999C111.983 88.9592 112.058 84.0389 110.269 79.0006L108.776 74.4099C108.776 74.4099 99.5654 79.9323 93.4657 79.4233C92.9225 79.3778 92.3794 79.3346 91.8362 79.3142C90.584 79.2687 88.6545 79.3142 87.3864 78.3051L84.7411 78.7597V86.2957C84.7392 87.3957 84.5366 88.4863 84.1434 89.5137C84.0866 89.6637 84.0275 89.8114 83.9616 89.9682C83.7366 90.4545 83.5934 91 83.7253 91.4863Z" fill="#7E5659"/>
<path opacity="0.1" d="M96.7476 91.8181V94.1589C96.7476 94.1589 101.261 95.1679 111.542 93.2862C111.542 93.2862 111.665 92.6294 111.77 91.509C108.604 92.0067 99.9042 93.2248 96.7476 91.8181Z" fill="black"/>
<path opacity="0.1" d="M83.7255 91.4863C83.7255 91.4863 94.0545 93.5521 96.4862 93.2771L96.7475 94.1498V91.8181C95.5726 92.3044 87.173 90.2818 84.1323 89.5228C84.0754 89.6727 84.0164 89.8205 83.9505 89.9773C83.7368 90.4545 83.5937 91 83.7255 91.4863Z" fill="black"/>
<path d="M108.765 88.8637L109.531 93.6134C110.11 93.5225 110.711 93.4203 111.335 93.3066C111.108 91.9181 110.574 88.7614 110.717 88.2205L109.753 87.3956L108.765 88.8637Z" fill="#7E5659"/>
<path opacity="0.1" d="M108.765 88.8637L109.531 93.6134C110.11 93.5225 110.711 93.4203 111.335 93.3066C111.108 91.9181 110.574 88.7614 110.717 88.2205L109.753 87.3956L108.765 88.8637Z" fill="black"/>
<g opacity="0.05">
<path opacity="0.05" d="M92.902 79.4232C92.3589 79.3778 91.818 79.3346 91.2726 79.3142C90.0567 79.271 88.1977 79.3142 86.9319 78.3824L87.375 78.3051C88.6409 79.3119 90.5726 79.2687 91.8248 79.3142C92.368 79.3346 92.9111 79.3778 93.4543 79.4232C93.6315 79.4392 93.8133 79.4482 93.9974 79.4528C93.632 79.4625 93.2664 79.4526 92.902 79.4232Z" fill="black"/>
<path opacity="0.05" d="M108.976 93.6203C109.557 93.5294 110.158 93.4271 110.781 93.3135L110.988 93.2771C110.988 93.2771 111.108 92.6203 111.215 91.4999C111.428 88.9591 111.503 84.0389 109.713 79.0006L108.308 74.6826C108.608 74.5144 108.763 74.4144 108.763 74.4144L110.256 79.0051C112.044 84.0435 111.969 88.9637 111.756 91.5045C111.663 92.6249 111.528 93.2816 111.528 93.2816L111.322 93.318C110.699 93.4316 110.097 93.5339 109.517 93.6248C105.379 94.2816 102.318 94.4407 100.229 94.4225C103.161 94.3758 106.085 94.1076 108.976 93.6203Z" fill="black"/>
<path opacity="0.05" d="M95.9337 93.2771V93.3021H95.636C95.7519 93.293 95.8473 93.2862 95.9337 93.2771Z" fill="black"/>
</g>
<path d="M110.051 89.7637C110.266 89.7637 110.44 89.4045 110.44 88.9614C110.44 88.5184 110.266 88.1592 110.051 88.1592C109.837 88.1592 109.663 88.5184 109.663 88.9614C109.663 89.4045 109.837 89.7637 110.051 89.7637Z" fill="#D39999"/>
<path d="M85.1753 72.7145C85.8026 68.042 86.9139 65.2649 87.4979 64.1786C87.5229 64.3286 87.582 64.8081 87.607 64.9581C87.7275 65.6399 87.6229 66.5012 87.6593 67.3693L87.0752 77.9552L87.857 81.2595C88.5911 83.8753 85.8707 81.8095 85.8707 81.8095C85.3071 83.0503 84.2799 82.9117 84.2799 82.9117L84.139 81.0164C84.0051 79.2297 84.1656 77.4331 84.614 75.6985C84.8595 74.7157 85.0469 73.7193 85.1753 72.7145Z" fill="#FDC2CC"/>
<path opacity="0.05" d="M85.1753 72.7145C85.8026 68.042 86.9139 65.2649 87.4979 64.1786C87.5229 64.3286 87.582 64.8081 87.607 64.9581C87.7275 65.6399 87.6229 66.5012 87.6593 67.3693L87.0752 77.9552L87.857 81.2595C88.5911 83.8753 85.8707 81.8095 85.8707 81.8095C85.3071 83.0503 84.2799 82.9117 84.2799 82.9117L84.139 81.0164C84.0051 79.2297 84.1656 77.4331 84.614 75.6985C84.8595 74.7157 85.0469 73.7193 85.1753 72.7145Z" fill="black"/>
<path d="M111.335 78.4097C110.84 79.0483 110.569 79.4164 110.569 79.4164L108.524 82.4368C108.175 82.9521 107.651 83.3229 107.049 83.4799C106.113 83.7276 104.676 83.9049 103.433 83.2231C102.978 82.972 102.633 82.5613 102.463 82.0703C102.293 81.5793 102.311 81.0427 102.513 80.5641L102.967 79.5073C102.967 79.5073 98.745 82.1709 98.3768 80.7027C98.0086 79.2346 103.288 77.7643 103.288 77.7643C103.288 77.7643 107.649 77.0302 108.515 74.9644C108.515 74.9644 108.897 74.4735 109.424 73.7258" fill="#FDC2CC"/>
<path d="M108.765 83.4776C108.765 83.4776 103.765 82.9935 102.19 80.1369L101.477 82.4868C101.477 82.4868 106.704 86.1047 107.915 85.6366L108.765 83.4776Z" fill="#7E5659"/>
<path opacity="0.1" d="M108.765 83.4776C108.765 83.4776 103.765 82.9935 102.19 80.1369L101.477 82.4868C101.477 82.4868 106.704 86.1047 107.915 85.6366L108.765 83.4776Z" fill="black"/>
<path d="M86.0344 82.1459C86.0344 82.1459 84.2868 82.764 83.9436 82.4208L84.7299 83.8662L86.2139 82.7299L86.0344 82.1459Z" fill="#7E5659"/>
<path opacity="0.1" d="M86.0344 82.1459C86.0344 82.1459 84.2868 82.764 83.9436 82.4208L84.7299 83.8662L86.2139 82.7299L86.0344 82.1459Z" fill="black"/>
<path opacity="0.1" d="M96.7472 91.809V88.7887L96.0291 91.8817L96.7472 91.809Z" fill="black"/>
<path opacity="0.1" d="M103.829 29.4031C103.409 29.9939 102.677 30.2962 101.956 30.3894C101.236 30.4826 100.506 30.403 99.7792 30.3894C98.6429 30.3689 97.4293 30.5439 96.4952 31.2143C95.8998 31.6416 95.4544 32.2393 94.9885 32.8052C93.5795 34.5278 91.6228 36.1368 89.4047 35.9573C89.2114 35.9574 89.02 35.9187 88.8419 35.8433C88.6639 35.768 88.5029 35.6576 88.3684 35.5187C88.1863 35.2393 88.0936 34.9111 88.1025 34.5778C88.0073 33.1587 88.0522 31.7337 88.2366 30.3235C88.3258 29.4509 88.5433 28.5963 88.882 27.7872C89.277 26.975 89.7978 26.2303 90.4251 25.5805C91.1838 24.7004 92.0983 23.9678 93.1227 23.4193C94.1613 22.9034 95.3771 22.6807 96.4952 22.9852C97.8225 23.3465 98.8588 24.3851 100.131 24.9215C101.575 25.5373 105.418 27.1623 103.829 29.4031Z" fill="black"/>
<path d="M103.829 29.1258C103.409 29.719 102.677 30.0189 101.956 30.1144C101.236 30.2098 100.506 30.128 99.7792 30.1144C98.6428 30.0962 97.4293 30.2712 96.4952 30.9393C95.8998 31.3689 95.4544 31.9666 94.9885 32.5302C93.5795 34.2505 91.6227 35.8618 89.4047 35.6823C89.2113 35.6824 89.02 35.6437 88.8419 35.5683C88.6639 35.493 88.5028 35.3826 88.3684 35.2437C88.186 34.9636 88.0932 34.6346 88.1025 34.3005C88.0073 32.8822 88.0522 31.458 88.2365 30.0485C88.3258 29.1759 88.5432 28.3213 88.882 27.5122C89.2769 26.7 89.7977 25.9553 90.4251 25.3055C91.1838 24.4255 92.0983 23.6928 93.1227 23.1443C94.1612 22.6284 95.3771 22.4057 96.4952 22.7102C97.8224 23.0716 98.8587 24.1101 100.131 24.6465C101.575 25.2601 105.418 26.8873 103.829 29.1258Z" fill="#865A61"/>
<path d="M87.3749 78.3051L87.3568 79.1369L87.1704 78.3415L87.3749 78.3051Z" fill="#FDC2CC"/>
<path opacity="0.05" d="M87.3749 78.3051L87.3568 79.1369L87.1704 78.3415L87.3749 78.3051Z" fill="black"/>
<g opacity="0.05">
<path opacity="0.05" d="M104.951 47.6885C103.022 54.0405 108.649 54.7859 108.649 54.7859L113.171 66.9057C113.537 68.9715 108.854 74.9849 108.854 74.9849C108.529 75.7575 107.717 76.3484 106.824 76.7734C107.344 76.4585 107.763 76 108.029 75.453C108.029 75.453 112.71 69.4397 112.347 67.3739L107.826 55.254C107.826 55.254 102.199 54.5086 104.129 48.1567C104.774 46.034 105.72 45.0682 106.685 44.7205C106.022 45.2545 105.41 46.1772 104.951 47.6885Z" fill="black"/>
</g>
<g opacity="0.1">
<path opacity="0.1" d="M105.045 53.461C105.308 53.7875 105.614 54.0779 105.954 54.3246C106.592 54.7865 107.327 55.0974 108.104 55.2336V55.4609C107.4 55.3107 106.735 55.0159 106.151 54.595C105.722 54.2813 105.348 53.898 105.045 53.461Z" fill="black"/>
<path opacity="0.1" d="M87.5637 62.5468C87.5637 62.5741 87.5637 62.5991 87.5637 62.6264C87.6296 63.7054 87.757 64.7799 87.9455 65.8444C88.6273 69.7737 87.7342 77.5756 87.6046 78.6551C87.5319 78.6074 87.4592 78.5597 87.3774 78.5097C87.4092 78.2506 88.4591 69.7419 87.7319 65.5785C87.5445 64.5138 87.4171 63.4395 87.3501 62.3605C87.3501 62.3332 87.3501 62.3059 87.3501 62.2809C87.3053 61.6558 87.0943 61.054 86.7388 60.5378C87.216 61.1054 87.5043 61.8077 87.5637 62.5468Z" fill="black"/>
<path opacity="0.1" d="M91.759 42.8819L89.5296 42.8388C89.5278 42.8378 89.5259 42.8372 89.5239 42.8372C89.5219 42.8372 89.5199 42.8378 89.5182 42.8388L86.6684 49.2816C86.1709 50.3961 85.7902 51.559 85.5321 52.7519C84.7026 56.6494 85.223 58.5902 85.857 59.5493C85.1434 58.7084 84.4071 56.7903 85.3253 52.4769C85.5837 51.2834 85.9645 50.1197 86.4616 49.0043L89.3114 42.5638L91.9385 42.6138V42.6319C91.9317 42.666 91.859 42.7524 91.759 42.8819Z" fill="black"/>
<path opacity="0.1" d="M107.738 44.5955L105.513 43.9137C105.381 44.0614 102.149 47.6408 99.7223 50.5406C97.552 53.1314 93.7476 52.9291 92.8318 52.8382C92.6659 52.8201 92.4977 52.8064 92.3318 52.7951C89.8319 52.636 88.8592 52.3405 88.532 51.711C89.0001 52.1655 90.0274 52.3928 92.125 52.5201C92.2909 52.5314 92.4591 52.5451 92.625 52.561C93.534 52.6542 97.3452 52.8564 99.5155 50.2656C101.943 47.3658 105.174 43.7864 105.306 43.6387L108.556 44.6227C108.288 44.5575 108.01 44.5483 107.738 44.5955Z" fill="black"/>
</g>
<path opacity="0.1" d="M81.2914 143.04C81.2914 143.04 78.1461 143.899 77.5393 142.55L81.2914 143.04Z" fill="black"/>
<path opacity="0.1" d="M101.261 142.395C101.261 142.395 97.6041 143.336 96.77 141.879L101.261 142.395Z" fill="black"/>
<path d="M147.656 126.339C147.656 126.339 147.202 124.521 146.8 122.728C146.715 121.605 146.518 120.149 146.434 119.546V119.474C146.434 119.229 146.343 118.994 146.177 118.814C146.404 118.16 147.229 115.669 147.075 114.951C146.897 114.124 146.261 112.106 145.506 111.44C145.268 111.079 144.92 110.804 144.513 110.656C144.155 110.522 143.771 110.469 143.389 110.499C143.007 110.53 142.637 110.644 142.304 110.833L138.468 112.985C136.93 112.758 135.682 112.583 135.682 112.583C135.682 112.583 134.73 112.469 133.539 112.356C133.168 111.474 131.948 108.808 130.682 108.385C129.319 107.931 127.728 108.547 127.38 108.69H127.362L127.316 108.708C124.817 109.865 125.107 114.762 125.203 115.833C124.737 116.422 124.235 116.982 123.698 117.508C122.842 118.262 122.576 120.235 123.373 120.642C123.751 120.835 124.282 121.064 124.755 121.253C122.592 125.855 118.93 134.902 122.21 137.473C126.669 140.966 135.023 142.127 137.891 140.966C137.967 140.98 138.045 140.974 138.118 140.95C138.118 140.95 142.766 139.843 143.852 138.604C144.67 137.587 145.227 136.386 145.477 135.105C146.606 134.109 147.374 132.767 147.659 131.289C148.229 128.43 147.656 126.339 147.656 126.339ZM144.75 116.417L144.861 115.867L145.045 115.969C145.016 116.121 144.984 116.278 144.943 116.44L144.77 117.499L144.75 116.417ZM143.875 111.84C144.072 111.972 145.384 112.947 145.122 115.435C145.11 115.339 145.085 115.244 145.05 115.153C144.993 114.797 144.736 114.312 143.85 114.017C143.088 113.798 142.314 113.626 141.532 113.501C142.201 112.805 142.996 112.241 143.875 111.84ZM130.841 112.099C129.837 112.022 129.046 111.99 128.937 112.067H128.921C128.792 112.056 128.661 112.072 128.539 112.115C128.148 112.207 127.781 112.379 127.46 112.619C127.914 110.076 129.241 109.863 129.53 109.847C130.103 110.509 130.548 111.273 130.841 112.099ZM145.281 132.271C145.143 130.193 145.016 126.948 144.947 125.057L145.063 125.039C145.194 125.022 145.323 124.996 145.45 124.962C145.577 126.185 145.804 127.637 146.197 128.58C146.702 129.798 145.913 131.33 145.281 132.271Z" fill="url(#paint1_linear)"/>
<path d="M144.429 115.285L141.838 114.481L139.045 115.487L138.845 117.242L140.225 118.135L142.413 118.062L144.343 117.155L144.672 115.487L144.429 115.285Z" fill="#CD939C"/>
<path opacity="0.2" d="M144.429 115.285L141.838 114.481L139.045 115.487L138.845 117.242L140.225 118.135L142.413 118.062L144.343 117.155L144.672 115.487L144.429 115.285Z" fill="black"/>
<path d="M125.473 116.149C125.473 116.149 124.766 110.081 127.569 108.854C127.569 108.854 129.066 108.929 129.718 110.004C129.718 110.004 127.673 109.89 127.507 114.149L125.473 116.149Z" fill="#F6C6CD"/>
<path opacity="0.1" d="M125.473 116.149C125.473 116.149 124.766 110.081 127.569 108.854C127.569 108.854 129.066 108.929 129.718 110.004C129.718 110.004 127.673 109.89 127.507 114.149L125.473 116.149Z" fill="black"/>
<path d="M126.985 113.976C126.985 113.976 124.826 116.855 123.989 117.612C123.153 118.369 122.896 120.319 123.673 120.721C124.451 121.123 125.946 121.701 125.946 121.701L126.985 113.976Z" fill="#CD939C"/>
<path opacity="0.05" d="M126.985 113.976C126.985 113.976 124.826 116.855 123.989 117.612C123.153 118.369 122.896 120.319 123.673 120.721C124.451 121.123 125.946 121.701 125.946 121.701L126.985 113.976Z" fill="black"/>
<path d="M133.675 112.767C133.675 112.767 132.266 109.054 130.784 108.551C129.302 108.049 127.507 108.881 127.507 108.881C127.507 108.881 129.689 108.654 131.027 112.478L133.675 112.767Z" fill="#F6C6CD"/>
<path d="M145.804 119.058C145.804 119.058 146.902 115.89 146.729 115.069C146.556 114.249 145.938 112.249 145.204 111.588C144.47 110.926 143.593 111.96 143.593 111.96C143.593 111.96 145.479 113.097 144.659 116.537L144.413 118.064L145.804 119.058Z" fill="#F6C6CD"/>
<path opacity="0.1" d="M145.804 119.058C145.804 119.058 146.902 115.89 146.729 115.069C146.556 114.249 145.938 112.249 145.204 111.588C144.47 110.926 143.593 111.96 143.593 111.96C143.593 111.96 145.479 113.097 144.659 116.537L144.413 118.064L145.804 119.058Z" fill="black"/>
<path d="M137.793 113.444L142.088 110.988C142.411 110.8 142.771 110.687 143.143 110.656C143.515 110.626 143.889 110.679 144.238 110.813C144.635 110.96 144.974 111.232 145.204 111.588C145.204 111.588 143.131 111.472 140.829 114.178L137.793 113.444Z" fill="#F6C6CD"/>
<path d="M144.993 122.785C144.993 122.785 145.108 126.698 145.877 128.58C146.645 130.462 144.34 133.109 144.34 133.109L144.763 135.382C144.763 135.382 146.74 134.116 147.297 131.275C147.854 128.434 147.297 126.364 147.297 126.364C147.297 126.364 145.706 119.983 145.933 119.301C146.161 118.619 144.993 122.785 144.993 122.785Z" fill="#F6C6CD"/>
<path opacity="0.1" d="M144.993 122.785C144.993 122.785 145.108 126.698 145.877 128.58C146.645 130.462 144.34 133.109 144.34 133.109L144.763 135.382C144.763 135.382 146.74 134.116 147.297 131.275C147.854 128.434 147.297 126.364 147.297 126.364C147.297 126.364 145.706 119.983 145.933 119.301C146.161 118.619 144.993 122.785 144.993 122.785Z" fill="black"/>
<path d="M144.456 115.908C144.456 115.908 144.802 117.903 140.734 117.021L138.007 140.838C138.007 140.838 142.527 139.741 143.584 138.513C144.64 137.286 145.424 134.943 145.174 134.1C144.924 133.257 144.608 123.585 144.608 123.585L144.456 115.908Z" fill="#CD939C"/>
<path d="M126.341 118.61C126.341 118.61 118.203 133.934 122.542 137.398C126.88 140.861 135.004 142.013 137.793 140.861C137.793 140.861 139.084 141.207 138.891 137.177C138.697 133.148 140.388 121.901 140.388 121.901L126.341 118.61Z" fill="#CD939C"/>
<path d="M126.612 119.294C126.612 119.294 118.976 133.696 123.039 136.95C127.103 140.204 134.755 141.286 137.373 140.204C137.373 140.204 138.586 140.529 138.404 136.741C138.223 132.952 139.811 122.387 139.811 122.387L126.612 119.294Z" fill="#F6C6CD"/>
<path opacity="0.1" d="M144.284 125.225C143.97 125.453 142.181 124.907 142.181 124.907C140.247 124.773 140.936 121.442 141.286 120.117C141.375 119.787 141.441 119.583 141.441 119.583C142.35 120.735 143.968 120.244 143.968 120.244C143.968 120.244 144.015 120.614 144.079 121.153C144.245 122.553 144.509 125.069 144.284 125.225Z" fill="black"/>
<path d="M144.34 125.116C144.029 125.344 142.241 124.801 142.241 124.801C140.304 124.664 140.993 121.333 141.345 120.01C141.431 119.68 141.497 119.474 141.497 119.474C142.406 120.628 144.025 120.137 144.025 120.137C144.025 120.137 144.072 120.508 144.138 121.046C144.302 122.437 144.565 124.953 144.34 125.116Z" fill="#F6C6CD"/>
<path opacity="0.05" d="M144.34 125.198C144.029 125.425 142.241 124.882 142.241 124.882C140.304 124.746 140.993 121.417 141.345 120.092C141.431 119.762 141.497 119.558 141.497 119.558C142.406 120.71 144.025 120.219 144.025 120.219C144.025 120.219 144.072 120.589 144.138 121.128C144.302 122.521 144.565 125.035 144.34 125.198Z" fill="black"/>
<path opacity="0.1" d="M144.138 121.046C143.256 120.935 141.904 120.292 141.345 120.01C141.432 119.68 141.497 119.474 141.497 119.474C142.407 120.628 144.025 120.137 144.025 120.137C144.025 120.137 144.072 120.508 144.138 121.046Z" fill="black"/>
<path d="M143.277 119.998C143.277 119.998 141.079 125.725 144.772 125.064C144.772 125.064 146.509 124.882 146.499 123.566C146.49 122.251 146.068 119.355 146.068 119.355L143.277 119.998Z" fill="#F6C6CD"/>
<path opacity="0.1" d="M141.636 118.569C141.636 118.569 140.518 123.207 144.097 121.487C147.677 119.767 145.386 118.569 145.386 118.569L143.677 117.453L141.636 118.569Z" fill="black"/>
<path d="M141.636 118.512C141.636 118.512 140.518 123.148 144.097 121.428C147.677 119.708 145.386 118.512 145.386 118.512L143.677 117.396L141.636 118.512Z" fill="#CD939C"/>
<path opacity="0.1" d="M142.32 117.865C142.32 117.865 141.295 118.137 141.82 119.151C142.06 119.609 142.173 120.123 142.15 120.639C142.137 120.808 142.187 120.975 142.291 121.109C142.395 121.242 142.544 121.333 142.711 121.362C143.079 121.428 143.604 121.337 144.268 120.758C144.268 120.758 145.59 120.264 145.488 119.621C145.386 118.978 143.215 117.533 143.215 117.533L142.32 117.865Z" fill="black"/>
<path d="M142.32 117.805C142.32 117.805 141.295 118.08 141.82 119.094C142.06 119.552 142.173 120.066 142.15 120.583C142.137 120.751 142.187 120.918 142.291 121.052C142.395 121.186 142.544 121.276 142.711 121.305C143.079 121.369 143.604 121.278 144.268 120.701C144.268 120.701 145.59 120.205 145.488 119.564C145.386 118.924 143.215 117.476 143.215 117.476L142.32 117.805Z" fill="#F6C6CD"/>
<path opacity="0.1" d="M143.7 120.13C144.072 120.13 144.375 119.828 144.375 119.455C144.375 119.083 144.072 118.78 143.7 118.78C143.327 118.78 143.025 119.083 143.025 119.455C143.025 119.828 143.327 120.13 143.7 120.13Z" fill="black"/>
<path d="M143.7 120.073C144.072 120.073 144.375 119.771 144.375 119.399C144.375 119.026 144.072 118.724 143.7 118.724C143.327 118.724 143.025 119.026 143.025 119.399C143.025 119.771 143.327 120.073 143.7 120.073Z" fill="#CD939C"/>
<path opacity="0.1" d="M135.45 112.917C135.45 112.917 129.025 112.122 128.698 112.367C128.698 112.367 125.289 112.949 125.289 119.31C125.289 119.31 125.219 122.964 132.248 124.723C132.248 124.723 137.888 125.219 139.729 122.982C141.57 120.746 140.657 116.985 140.657 116.985C140.657 116.985 141.391 114.11 144.799 116.099C144.799 116.099 145.156 114.962 143.618 114.417C142.079 113.872 135.45 112.917 135.45 112.917Z" fill="black"/>
<path d="M135.45 112.803C135.45 112.803 129.025 112.008 128.698 112.251C128.698 112.251 125.289 112.833 125.289 119.194C125.289 119.194 125.219 122.851 132.248 124.61C132.248 124.61 137.888 125.105 139.729 122.869C141.57 120.633 140.657 116.871 140.657 116.871C140.657 116.871 141.391 113.997 144.799 115.983C144.799 115.983 145.156 114.846 143.618 114.301C142.079 113.756 135.45 112.803 135.45 112.803Z" fill="#CD939C"/>
<path opacity="0.1" d="M135.648 112.824C135.648 112.824 129.403 112.076 129.084 112.306C129.084 112.306 125.775 112.853 125.775 118.842C125.775 118.842 125.707 122.28 132.539 123.937C132.539 123.937 138.023 124.391 139.811 122.298C141.6 120.205 140.72 116.653 140.72 116.653C140.72 116.653 141.434 113.947 144.747 115.819C144.747 115.819 145.097 114.753 143.611 114.228C142.125 113.703 135.648 112.824 135.648 112.824Z" fill="black"/>
<path d="M135.648 112.767C135.648 112.767 129.403 112.019 129.084 112.249C129.084 112.249 125.775 112.797 125.775 118.783C125.775 118.783 125.707 122.223 132.539 123.878C132.539 123.878 138.023 124.332 139.811 122.239C141.6 120.146 140.72 116.596 140.72 116.596C140.72 116.596 141.434 113.89 144.747 115.76C144.747 115.76 145.097 114.696 143.611 114.169C142.125 113.642 135.648 112.767 135.648 112.767Z" fill="#F6C6CD"/>
<path d="M132.509 122.61C132.509 122.61 130.812 121.835 130.725 123.292C130.725 123.292 130.15 124.76 130.121 124.932C130.091 125.105 130.207 126.6 131.532 126.544C131.9 126.539 132.26 126.435 132.574 126.243C132.888 126.051 133.144 125.778 133.316 125.453C133.316 125.453 133.605 123.844 133.998 123.498C134.391 123.153 133.709 122.817 133.45 122.817C133.131 122.775 132.816 122.706 132.509 122.61Z" fill="#CD939C"/>
<path opacity="0.1" d="M132.28 122.38C132.28 122.38 130.582 121.605 130.496 123.062C130.496 123.062 129.921 124.53 129.891 124.703C129.862 124.876 129.978 126.371 131.302 126.314C131.671 126.309 132.031 126.205 132.345 126.012C132.659 125.819 132.915 125.545 133.087 125.219C133.087 125.219 133.373 123.607 133.768 123.262C134.164 122.917 133.48 122.58 133.221 122.58C132.902 122.541 132.587 122.474 132.28 122.38Z" fill="black"/>
<path d="M132.337 122.323C132.337 122.323 130.639 121.546 130.553 123.005C130.553 123.005 129.978 124.473 129.948 124.646C129.919 124.819 130.034 126.316 131.359 126.26C131.728 126.254 132.089 126.15 132.403 125.956C132.717 125.763 132.973 125.489 133.143 125.162C133.143 125.162 133.432 123.553 133.825 123.207C134.218 122.862 133.537 122.526 133.277 122.526C132.959 122.485 132.644 122.418 132.337 122.323Z" fill="#F6C6CD"/>
<path opacity="0.1" d="M131.489 125.794C131.829 125.794 132.105 125.518 132.105 125.178C132.105 124.838 131.829 124.562 131.489 124.562C131.149 124.562 130.873 124.838 130.873 125.178C130.873 125.518 131.149 125.794 131.489 125.794Z" fill="black"/>
<path d="M131.489 125.737C131.829 125.737 132.105 125.461 132.105 125.121C132.105 124.781 131.829 124.505 131.489 124.505C131.149 124.505 130.873 124.781 130.873 125.121C130.873 125.461 131.149 125.737 131.489 125.737Z" fill="#CD939C"/>
<path d="M137.245 128.484C137.245 128.484 130.553 127.705 125.882 125.303C125.882 125.303 122.198 134.589 125.135 135.889C128.071 137.189 134.173 139.268 135.884 138.55C135.884 138.55 136.907 138.718 136.566 135.339C136.225 131.959 137.245 128.484 137.245 128.484Z" fill="#CD939C"/>
<path opacity="0.1" d="M136.843 129.146C136.843 129.146 130.15 128.412 125.48 126.153C125.48 126.153 121.794 134.889 124.73 136.111C127.666 137.334 133.768 139.293 135.482 138.611C135.482 138.611 136.505 138.77 136.164 135.589C135.823 132.407 136.843 129.146 136.843 129.146Z" fill="black"/>
<path d="M136.957 129.089C136.957 129.089 130.266 128.355 125.594 126.096C125.594 126.096 121.91 134.832 124.846 136.055C127.782 137.277 133.884 139.236 135.598 138.554C135.598 138.554 136.618 138.713 136.28 135.532C135.941 132.35 136.957 129.089 136.957 129.089Z" fill="#F6C6CD"/>
<g opacity="0.1">
<path opacity="0.1" d="M143.593 114.131C142.095 113.612 135.639 112.722 135.639 112.722C135.639 112.722 129.393 111.972 129.075 112.203C129.075 112.203 127.462 112.469 126.489 114.669C127.469 112.694 128.962 112.447 128.962 112.447C129.278 112.219 135.525 112.965 135.525 112.965C135.525 112.965 141.972 113.858 143.479 114.376C144.484 114.724 144.656 115.317 144.661 115.671L144.74 115.715C144.74 115.715 145.09 114.649 143.593 114.131Z" fill="black"/>
<path opacity="0.1" d="M140.77 116.387C140.698 116.516 140.641 116.653 140.6 116.794C140.6 116.794 141.234 119.317 140.338 121.38C141.391 119.289 140.704 116.549 140.704 116.549C140.704 116.549 140.732 116.487 140.77 116.387Z" fill="black"/>
</g>
</g>
<defs>
<linearGradient id="paint0_linear" x1="93.2134" y1="152.395" x2="93.2134" y2="18.1923" gradientUnits="userSpaceOnUse">
<stop stop-color="#808080" stop-opacity="0.25"/>
<stop offset="0.54" stop-color="#808080" stop-opacity="0.12"/>
<stop offset="1" stop-color="#808080" stop-opacity="0.1"/>
</linearGradient>
<linearGradient id="paint1_linear" x1="17593.5" y1="22544.9" x2="17593.5" y2="17699.3" gradientUnits="userSpaceOnUse">
<stop stop-color="#808080" stop-opacity="0.25"/>
<stop offset="0.54" stop-color="#808080" stop-opacity="0.12"/>
<stop offset="1" stop-color="#808080" stop-opacity="0.1"/>
</linearGradient>
<clipPath id="clip0">
<rect width="247.499" height="180" fill="white"/>
</clipPath>
</defs>
</svg>
